<svg width="96" height="72" viewBox="0 0 96 72" fill="none" xmlns="http://www.w3.org/2000/svg">
<g filter="url(#filter0_f_403_174)">
<path d="M82.9988 5.02992C83.0153 4.47788 82.5811 4.01699 82.0291 4.00049C81.477 3.98399 81.0161 4.41814 80.9996 4.97017L82.9988 5.02992ZM6.37501 56.7828C5.94356 57.1276 5.8733 57.7568 6.21808 58.1883L11.8366 65.2191C12.1813 65.6506 12.8106 65.7208 13.242 65.3761C13.6735 65.0313 13.7437 64.402 13.399 63.9706L8.40477 57.721L14.6544 52.7268C15.0859 52.382 15.1561 51.7527 14.8113 51.3213C14.4666 50.8898 13.8373 50.8196 13.4059 51.1643L6.37501 56.7828ZM58.4999 49.5L57.9115 48.6914L58.4999 49.5ZM80.9996 4.97017C80.7096 14.6771 78.8325 22.7543 75.1046 29.8139C71.3766 36.8734 65.7645 42.9782 57.9115 48.6914L59.0882 50.3087C67.1271 44.4601 72.9711 38.1368 76.8731 30.7478C80.7751 23.3588 82.7018 14.9668 82.9988 5.02992L80.9996 4.97017ZM57.9115 48.6914C49.9374 54.4928 37.3269 56.5062 26.5285 57.0243C21.1609 57.2818 16.3007 57.1679 12.782 56.9895C11.0233 56.9003 9.60154 56.795 8.62112 56.7123C8.13096 56.6709 7.75124 56.6352 7.49505 56.6099C7.36695 56.5972 7.26975 56.5872 7.20507 56.5804C7.17273 56.577 7.14852 56.5744 7.13265 56.5727C7.12471 56.5718 7.11886 56.5711 7.11512 56.5707C7.11325 56.5705 7.11191 56.5704 7.11109 56.5703C7.11069 56.5702 7.11048 56.5702 7.11027 56.5702C7.1102 56.5702 7.11025 56.5702 6.99929 57.564C6.88832 58.5578 6.88864 58.5579 6.8891 58.5579C6.88943 58.558 6.89002 58.558 6.89068 58.5581C6.892 58.5583 6.89385 58.5585 6.89623 58.5587C6.90099 58.5592 6.90787 58.56 6.91684 58.561C6.93478 58.5629 6.96108 58.5657 6.99554 58.5694C7.06445 58.5766 7.16601 58.5871 7.29857 58.6002C7.56367 58.6264 7.95282 58.663 8.4529 58.7052C9.45298 58.7896 10.8972 58.8965 12.6807 58.9869C16.2462 59.1677 21.1746 59.2834 26.6244 59.022C37.4608 58.5021 50.6007 56.4835 59.0882 50.3087L57.9115 48.6914Z" fill="#FFED00"/>
</g>
<path d="M82.9988 5.02992C83.0153 4.47788 82.5811 4.01699 82.0291 4.00049C81.477 3.98399 81.0161 4.41814 80.9996 4.97017L82.9988 5.02992ZM6.37501 56.7828C5.94356 57.1276 5.8733 57.7568 6.21808 58.1883L11.8366 65.2191C12.1813 65.6506 12.8106 65.7208 13.242 65.3761C13.6735 65.0313 13.7437 64.402 13.399 63.9706L8.40477 57.721L14.6544 52.7268C15.0859 52.382 15.1561 51.7527 14.8113 51.3213C14.4666 50.8898 13.8373 50.8196 13.4059 51.1643L6.37501 56.7828ZM58.4999 49.5L57.9115 48.6914L58.4999 49.5ZM80.9996 4.97017C80.7096 14.6771 78.8325 22.7543 75.1046 29.8139C71.3766 36.8734 65.7645 42.9782 57.9115 48.6914L59.0882 50.3087C67.1271 44.4601 72.9711 38.1368 76.8731 30.7478C80.7751 23.3588 82.7018 14.9668 82.9988 5.02992L80.9996 4.97017ZM57.9115 48.6914C49.9374 54.4928 37.3269 56.5062 26.5285 57.0243C21.1609 57.2818 16.3007 57.1679 12.782 56.9895C11.0233 56.9003 9.60154 56.795 8.62112 56.7123C8.13096 56.6709 7.75124 56.6352 7.49505 56.6099C7.36695 56.5972 7.26975 56.5872 7.20507 56.5804C7.17273 56.577 7.14852 56.5744 7.13265 56.5727C7.12471 56.5718 7.11886 56.5711 7.11512 56.5707C7.11325 56.5705 7.11191 56.5704 7.11109 56.5703C7.11069 56.5702 7.11048 56.5702 7.11027 56.5702C7.1102 56.5702 7.11025 56.5702 6.99929 57.564C6.88832 58.5578 6.88864 58.5579 6.8891 58.5579C6.88943 58.558 6.89002 58.558 6.89068 58.5581C6.892 58.5583 6.89385 58.5585 6.89623 58.5587C6.90099 58.5592 6.90787 58.56 6.91684 58.561C6.93478 58.5629 6.96108 58.5657 6.99554 58.5694C7.06445 58.5766 7.16601 58.5871 7.29857 58.6002C7.56367 58.6264 7.95282 58.663 8.4529 58.7052C9.45298 58.7896 10.8972 58.8965 12.6807 58.9869C16.2462 59.1677 21.1746 59.2834 26.6244 59.022C37.4608 58.5021 50.6007 56.4835 59.0882 50.3087L57.9115 48.6914Z" fill="#FFED00"/>
<path d="M54.8075 41.8559C53.8581 42.5917 52.8436 42.9184 51.764 42.8359C50.6305 42.7508 49.6815 42.215 48.9169 41.2286C48.1882 40.2884 47.7488 39.0759 47.5986 37.591C47.4318 35.9411 47.7837 34.7787 48.6544 34.1039C49.1082 33.7521 49.6979 33.4656 50.4234 33.2443C51.3437 32.9683 51.9564 33.0271 52.2616 33.4208C52.398 33.5968 52.4621 33.7991 52.454 34.0278C52.4423 34.2518 52.3508 34.4302 52.1795 34.563C52.0452 34.6671 51.8966 34.7193 51.7337 34.7196C51.5718 34.7116 51.414 34.7041 51.2604 34.6972C50.8184 34.6913 50.2872 34.9289 49.6666 35.4099C49.1942 35.776 49.0532 36.56 49.2433 37.7618C49.4214 38.8618 49.7293 39.6944 50.1673 40.2594C50.6411 40.8707 51.2228 41.1908 51.9124 41.2197C52.5563 41.247 53.1839 41.0237 53.7952 40.5499C54.0731 40.3345 54.312 40.0307 54.5121 39.6384L54.9841 38.5831C55.0656 38.4013 55.1364 38.2871 55.1966 38.2404C55.368 38.1076 55.57 38.0622 55.8027 38.1042C56.0319 38.1416 56.2146 38.2483 56.351 38.4243C56.6131 38.7624 56.5095 39.3652 56.0404 40.233C55.6306 40.9954 55.2196 41.5364 54.8075 41.8559Z" fill="#FFED00"/>
<path d="M56.5289 30.4058L59.4959 33.6145C59.8202 33.9447 60.2798 34.446 60.8746 35.1184C61.2434 35.5775 61.2439 35.9877 60.876 36.349C60.4664 36.7514 60.0521 36.7394 59.6333 36.313C59.1365 35.8072 58.4143 35.026 57.4666 33.9692C56.5148 32.9083 55.7905 32.1249 55.2937 31.6191C54.645 30.9587 53.9143 30.1939 53.1017 29.3248C52.2849 28.4515 51.5522 27.6847 50.9035 27.0242C50.4929 26.6062 50.4924 26.196 50.902 25.7936C51.3159 25.3871 51.7281 25.3929 52.1387 25.8109C52.7874 26.4714 53.5202 27.2382 54.3369 28.1115C55.1495 28.9806 55.8802 29.7454 56.5289 30.4058Z" fill="#FFED00"/>
<path d="M56.2158 24.3421C56.0457 24.5661 55.8192 24.6994 55.5365 24.7421C55.2538 24.7848 55.0005 24.7211 54.7766 24.5509C54.5527 24.3808 54.4235 24.1538 54.3889 23.8699C54.3544 23.5861 54.4222 23.3323 54.5924 23.1083C54.7626 22.8844 54.9873 22.7534 55.2664 22.7154C55.5491 22.6726 55.8024 22.7363 56.0264 22.9065C56.2503 23.0767 56.3795 23.3037 56.414 23.5875C56.4521 23.8667 56.386 24.1182 56.2158 24.3421ZM62.1371 28.3456C62.417 28.5583 62.8422 28.8704 63.4126 29.2818C63.982 29.6851 64.4066 29.9931 64.6865 30.2058C64.8917 30.3618 65.0118 30.5524 65.0467 30.7776C65.0816 31.0029 65.0211 31.2181 64.8651 31.4234C64.7126 31.6239 64.5214 31.7399 64.2915 31.7713C64.0652 31.798 63.8494 31.7333 63.6441 31.5773C63.3642 31.3646 62.9396 31.0566 62.3703 30.6533C61.7999 30.2419 61.3747 29.9298 61.0948 29.7171C60.6563 29.3838 60.1282 28.9457 59.5106 28.4027C58.8882 27.8561 58.3578 27.4162 57.9193 27.0829C57.7094 26.9234 57.587 26.731 57.5521 26.5058C57.5207 26.2759 57.5813 26.0606 57.7337 25.86C57.8862 25.6594 58.0756 25.5458 58.3019 25.5191C58.5318 25.4878 58.7517 25.5519 58.9617 25.7114C59.4002 26.0447 59.9306 26.4846 60.5529 27.0311C61.1706 27.5742 61.6986 28.0123 62.1371 28.3456Z" fill="#FFED00"/>
<path d="M70.6373 22.4791C70.1794 23.5896 69.4617 24.3774 68.484 24.8426C67.4582 25.3324 66.3684 25.3394 65.2145 24.8637C64.1149 24.4103 63.1307 23.5768 62.2622 22.3631C61.2971 21.0146 61.0244 19.8311 61.4443 18.8127C61.6632 18.2818 62.0323 17.74 62.5517 17.1873C63.213 16.4902 63.7739 16.2366 64.2343 16.4264C64.4402 16.5113 64.5965 16.6549 64.7031 16.8574C64.8044 17.0576 64.8137 17.2579 64.7311 17.4583C64.6663 17.6154 64.5633 17.7346 64.4221 17.8158C64.2777 17.8893 64.1371 17.9613 64.0003 18.0317C63.614 18.2463 63.2712 18.7166 62.9719 19.4425C62.7441 19.995 63.0115 20.7454 63.7741 21.6935C64.4755 22.5594 65.1566 23.1286 65.8175 23.4011C66.5326 23.6959 67.1965 23.6844 67.8092 23.3666C68.3814 23.0701 68.8149 22.5643 69.1097 21.8493C69.2437 21.5243 69.2999 21.1418 69.2784 20.702L69.1632 19.5517C69.1436 19.3535 69.1482 19.2192 69.1773 19.1487C69.2599 18.9483 69.4126 18.8085 69.6354 18.7292C69.8528 18.6477 70.0645 18.6494 70.2703 18.7343C70.6658 18.8973 70.8757 19.4719 70.9001 20.4579C70.9237 21.3232 70.836 21.997 70.6373 22.4791Z" fill="#FFED00"/>
<path d="M73.9951 7.60747C73.9452 7.92584 73.7387 8.14551 73.3757 8.26649C72.7438 8.47577 71.9808 8.82163 71.0866 9.3041L68.7529 10.5126C68.9665 10.8901 69.2581 11.4697 69.6278 12.2513C70.515 12.4557 71.3841 12.6247 72.235 12.7582C72.4955 12.7991 72.6941 12.9133 72.8307 13.1008C72.9683 13.2825 73.0175 13.4978 72.9785 13.7467C72.8867 14.3314 72.4473 14.5619 71.66 14.4384C71.1796 14.363 70.4668 14.2186 69.5217 14.0051C68.5717 13.7848 67.8564 13.637 67.376 13.5616C66.4961 13.4236 65.4936 13.2544 64.3685 13.0542C63.2385 12.8472 62.2393 12.6756 61.371 12.5394C61.1105 12.4985 60.8015 12.4648 60.4438 12.4384C60.0871 12.4061 59.7785 12.3696 59.518 12.3287C59.2575 12.2878 59.0585 12.1765 58.9209 11.9948C58.7843 11.8073 58.7355 11.5891 58.7746 11.3402C58.8136 11.0913 58.9264 10.9014 59.113 10.7705C59.3005 10.6339 59.5245 10.586 59.785 10.6269C60.0513 10.6686 60.3691 10.7037 60.7383 10.732C61.1017 10.7593 61.4166 10.7939 61.6828 10.8357L64.4692 11.3351C65.4718 11.5221 66.4777 11.6888 67.4867 11.8353C67.0082 10.9536 66.4673 10.0917 65.864 9.24976L64.1927 7.03028C64.0258 6.80838 63.9597 6.58744 63.9942 6.36748C64.0296 6.14172 64.1511 5.9532 64.3587 5.80191C64.5672 5.64483 64.7901 5.58491 65.0275 5.62215C65.2243 5.65303 65.405 5.76739 65.5697 5.96523C66.2916 6.80801 67.0483 7.8253 67.8399 9.0171L70.7157 7.52886C72.0645 6.83303 72.9212 6.51372 73.2859 6.57094C73.5174 6.60727 73.7026 6.73122 73.8414 6.9428C73.9811 7.14858 74.0324 7.37014 73.9951 7.60747Z" fill="#FFED00"/>
<g opacity="0.7" filter="url(#filter1_f_403_174)">
<path d="M54.8075 41.8559C53.8581 42.5917 52.8436 42.9184 51.764 42.8359C50.6305 42.7508 49.6815 42.215 48.9169 41.2286C48.1882 40.2884 47.7488 39.0759 47.5986 37.591C47.4318 35.9411 47.7837 34.7787 48.6544 34.1039C49.1082 33.7521 49.6979 33.4656 50.4234 33.2443C51.3437 32.9683 51.9564 33.0271 52.2616 33.4208C52.398 33.5968 52.4621 33.7991 52.454 34.0278C52.4423 34.2518 52.3508 34.4302 52.1795 34.563C52.0452 34.6671 51.8966 34.7193 51.7337 34.7196C51.5718 34.7116 51.414 34.7041 51.2604 34.6972C50.8184 34.6913 50.2872 34.9289 49.6666 35.4099C49.1942 35.776 49.0532 36.56 49.2433 37.7618C49.4214 38.8618 49.7293 39.6944 50.1673 40.2594C50.6411 40.8707 51.2228 41.1908 51.9124 41.2197C52.5563 41.247 53.1839 41.0237 53.7952 40.5499C54.0731 40.3345 54.312 40.0307 54.5121 39.6384L54.9841 38.5831C55.0656 38.4013 55.1364 38.2871 55.1966 38.2404C55.368 38.1076 55.57 38.0622 55.8027 38.1042C56.0319 38.1416 56.2146 38.2483 56.351 38.4243C56.6131 38.7624 56.5095 39.3652 56.0404 40.233C55.6306 40.9954 55.2196 41.5364 54.8075 41.8559Z" fill="#FFED00"/>
</g>
<g opacity="0.7" filter="url(#filter2_f_403_174)">
<path d="M56.5289 30.4058L59.4959 33.6145C59.8202 33.9447 60.2798 34.446 60.8746 35.1184C61.2434 35.5775 61.2439 35.9877 60.876 36.349C60.4664 36.7514 60.0521 36.7394 59.6333 36.313C59.1365 35.8072 58.4143 35.026 57.4666 33.9692C56.5148 32.9083 55.7905 32.1249 55.2937 31.6191C54.645 30.9587 53.9143 30.1939 53.1017 29.3248C52.2849 28.4515 51.5522 27.6847 50.9035 27.0242C50.4929 26.6062 50.4924 26.196 50.902 25.7936C51.3159 25.3871 51.7281 25.3929 52.1387 25.8109C52.7874 26.4714 53.5202 27.2382 54.3369 28.1115C55.1495 28.9806 55.8802 29.7454 56.5289 30.4058Z" fill="#FFED00"/>
</g>
<g opacity="0.7" filter="url(#filter3_f_403_174)">
<path d="M56.2158 24.3421C56.0457 24.5661 55.8192 24.6994 55.5365 24.7421C55.2538 24.7848 55.0005 24.7211 54.7766 24.5509C54.5527 24.3808 54.4235 24.1538 54.3889 23.8699C54.3544 23.5861 54.4222 23.3323 54.5924 23.1083C54.7626 22.8844 54.9873 22.7534 55.2664 22.7154C55.5491 22.6726 55.8024 22.7363 56.0264 22.9065C56.2503 23.0767 56.3795 23.3037 56.414 23.5875C56.4521 23.8667 56.386 24.1182 56.2158 24.3421ZM62.1371 28.3456C62.417 28.5583 62.8422 28.8704 63.4126 29.2818C63.982 29.6851 64.4066 29.9931 64.6865 30.2058C64.8917 30.3618 65.0118 30.5524 65.0467 30.7776C65.0816 31.0029 65.0211 31.2181 64.8651 31.4234C64.7126 31.6239 64.5214 31.7399 64.2915 31.7713C64.0652 31.798 63.8494 31.7333 63.6441 31.5773C63.3642 31.3646 62.9396 31.0566 62.3703 30.6533C61.7999 30.2419 61.3747 29.9298 61.0948 29.7171C60.6563 29.3838 60.1282 28.9457 59.5106 28.4027C58.8882 27.8561 58.3578 27.4162 57.9193 27.0829C57.7094 26.9234 57.587 26.731 57.5521 26.5058C57.5207 26.2759 57.5813 26.0606 57.7337 25.86C57.8862 25.6594 58.0756 25.5458 58.3019 25.5191C58.5318 25.4878 58.7517 25.5519 58.9617 25.7114C59.4002 26.0447 59.9306 26.4846 60.5529 27.0311C61.1706 27.5742 61.6986 28.0123 62.1371 28.3456Z" fill="#FFED00"/>
</g>
<g opacity="0.7" filter="url(#filter4_f_403_174)">
<path d="M70.6373 22.4791C70.1794 23.5896 69.4617 24.3774 68.484 24.8426C67.4582 25.3324 66.3684 25.3394 65.2145 24.8637C64.1149 24.4103 63.1307 23.5768 62.2622 22.3631C61.2971 21.0146 61.0244 19.8311 61.4443 18.8127C61.6632 18.2818 62.0323 17.74 62.5517 17.1873C63.213 16.4902 63.7739 16.2366 64.2343 16.4264C64.4402 16.5113 64.5965 16.6549 64.7031 16.8574C64.8044 17.0576 64.8137 17.2579 64.7311 17.4583C64.6663 17.6154 64.5633 17.7346 64.4221 17.8158C64.2777 17.8893 64.1371 17.9613 64.0003 18.0317C63.614 18.2463 63.2712 18.7166 62.9719 19.4425C62.7441 19.995 63.0115 20.7454 63.7741 21.6935C64.4755 22.5594 65.1566 23.1286 65.8175 23.4011C66.5326 23.6959 67.1965 23.6844 67.8092 23.3666C68.3814 23.0701 68.8149 22.5643 69.1097 21.8493C69.2437 21.5243 69.2999 21.1418 69.2784 20.702L69.1632 19.5517C69.1436 19.3535 69.1482 19.2192 69.1773 19.1487C69.2599 18.9483 69.4126 18.8085 69.6354 18.7292C69.8528 18.6477 70.0645 18.6494 70.2703 18.7343C70.6658 18.8973 70.8757 19.4719 70.9001 20.4579C70.9237 21.3232 70.836 21.997 70.6373 22.4791Z" fill="#FFED00"/>
</g>
<g opacity="0.7" filter="url(#filter5_f_403_174)">
<path d="M73.9951 7.60747C73.9452 7.92584 73.7387 8.14551 73.3757 8.26649C72.7438 8.47577 71.9808 8.82163 71.0866 9.3041L68.7529 10.5126C68.9665 10.8901 69.2581 11.4697 69.6278 12.2513C70.515 12.4557 71.3841 12.6247 72.235 12.7582C72.4955 12.7991 72.6941 12.9133 72.8307 13.1008C72.9683 13.2825 73.0175 13.4978 72.9785 13.7467C72.8867 14.3314 72.4473 14.5619 71.66 14.4384C71.1796 14.363 70.4668 14.2186 69.5217 14.0051C68.5717 13.7848 67.8564 13.637 67.376 13.5616C66.4961 13.4236 65.4936 13.2544 64.3685 13.0542C63.2385 12.8472 62.2393 12.6756 61.371 12.5394C61.1105 12.4985 60.8015 12.4648 60.4438 12.4384C60.0871 12.4061 59.7785 12.3696 59.518 12.3287C59.2575 12.2878 59.0585 12.1765 58.9209 11.9948C58.7843 11.8073 58.7355 11.5891 58.7746 11.3402C58.8136 11.0913 58.9264 10.9014 59.113 10.7705C59.3005 10.6339 59.5245 10.586 59.785 10.6269C60.0513 10.6686 60.3691 10.7037 60.7383 10.732C61.1017 10.7593 61.4166 10.7939 61.6828 10.8357L64.4692 11.3351C65.4718 11.5221 66.4777 11.6888 67.4867 11.8353C67.0082 10.9536 66.4673 10.0917 65.864 9.24976L64.1927 7.03028C64.0258 6.80838 63.9597 6.58744 63.9942 6.36748C64.0296 6.14172 64.1511 5.9532 64.3587 5.80191C64.5672 5.64483 64.7901 5.58491 65.0275 5.62215C65.2243 5.65303 65.405 5.76739 65.5697 5.96523C66.2916 6.80801 67.0483 7.8253 67.8399 9.0171L70.7157 7.52886C72.0645 6.83303 72.9212 6.51372 73.2859 6.57094C73.5174 6.60727 73.7026 6.73122 73.8414 6.9428C73.9811 7.14858 74.0324 7.37014 73.9951 7.60747Z" fill="#FFED00"/>
</g>
<defs>
<filter id="filter0_f_403_174" x="1.99902" y="3.05176e-05" width="85" height="69.5949" filterUnits="userSpaceOnUse" color-interpolation-filters="sRGB">
<feFlood flood-opacity="0" result="BackgroundImageFix"/>
<feBlend mode="normal" in="SourceGraphic" in2="BackgroundImageFix" result="shape"/>
<feGaussianBlur stdDeviation="2" result="effect1_foregroundBlur_403_174"/>
</filter>
<filter id="filter1_f_403_174" x="41.3682" y="27.9986" width="20.0654" height="20.474" filterUnits="userSpaceOnUse" color-interpolation-filters="sRGB">
<feFlood flood-opacity="0" result="BackgroundImageFix"/>
<feBlend mode="normal" in="SourceGraphic" in2="BackgroundImageFix" result="shape"/>
<feGaussianBlur stdDeviation="2" result="effect1_foregroundBlur_403_174"/>
</filter>
<filter id="filter2_f_403_174" x="46.0869" y="21.1839" width="19.6104" height="19.7687" filterUnits="userSpaceOnUse" color-interpolation-filters="sRGB">
<feFlood flood-opacity="0" result="BackgroundImageFix"/>
<feBlend mode="normal" in="SourceGraphic" in2="BackgroundImageFix" result="shape"/>
<feGaussianBlur stdDeviation="2" result="effect1_foregroundBlur_403_174"/>
</filter>
<filter id="filter3_f_403_174" x="49.7891" y="18.2896" width="19.9424" height="17.8685" filterUnits="userSpaceOnUse" color-interpolation-filters="sRGB">
<feFlood flood-opacity="0" result="BackgroundImageFix"/>
<feBlend mode="normal" in="SourceGraphic" in2="BackgroundImageFix" result="shape"/>
<feGaussianBlur stdDeviation="2" result="effect1_foregroundBlur_403_174"/>
</filter>
<filter id="filter4_f_403_174" x="55.8594" y="11.6356" width="20.0439" height="18.7926" filterUnits="userSpaceOnUse" color-interpolation-filters="sRGB">
<feFlood flood-opacity="0" result="BackgroundImageFix"/>
<feBlend mode="normal" in="SourceGraphic" in2="BackgroundImageFix" result="shape"/>
<feGaussianBlur stdDeviation="2" result="effect1_foregroundBlur_403_174"/>
</filter>
<filter id="filter5_f_403_174" x="56.6094" y="2.46338" width="19.5273" height="14.1685" filterUnits="userSpaceOnUse" color-interpolation-filters="sRGB">
<feFlood flood-opacity="0" result="BackgroundImageFix"/>
<feBlend mode="normal" in="SourceGraphic" in2="BackgroundImageFix" result="shape"/>
<feGaussianBlur stdDeviation="1" result="effect1_foregroundBlur_403_174"/>
</filter>
</defs>
</svg>
