<svg width="39" height="60" viewBox="0 0 39 60" fill="none" xmlns="http://www.w3.org/2000/svg">
<path d="M21.52 0.919998H17.68V21.016C17.68 22.7227 17.4667 24.216 17.04 25.496C16.656 26.7333 16.144 27.864 15.504 28.888C14.864 29.912 14.1813 30.872 13.456 31.768C12.7733 32.6213 12.112 33.5173 11.472 34.456C10.832 35.3947 10.2987 36.4187 9.872 37.528C9.488 38.5947 9.296 39.8533 9.296 41.304C9.296 43.992 10.064 46.5733 11.6 49.048C13.136 51.5227 15.4187 53.8267 18.448 55.96L17.68 54.616V59.16H21.52V53.464C18.7893 51.5013 16.6987 49.4747 15.248 47.384C13.84 45.336 13.136 43.3093 13.136 41.304C13.136 39.64 13.5627 38.1893 14.416 36.952C15.312 35.672 16.272 34.328 17.296 32.92C18.3627 31.512 19.3227 29.8907 20.176 28.056C21.072 26.1787 21.52 23.832 21.52 21.016V0.919998ZM12.368 24.6C10.2773 24.6 8.592 25.112 7.312 26.136C6.032 27.16 5.392 28.5893 5.392 30.424C5.392 31.704 5.69067 32.728 6.288 33.496C6.88533 34.264 7.632 34.9467 8.528 35.544C9.46667 36.0987 10.4693 36.6107 11.536 37.08C12.6027 37.5067 13.584 38.04 14.48 38.68C15.4187 39.32 16.1867 40.1093 16.784 41.048C17.3813 41.944 17.68 43.1387 17.68 44.632V48.92H21.52V45.912L21.2 45.464V44.632C21.2 42.712 20.9013 41.1333 20.304 39.896C19.7067 38.616 18.96 37.5707 18.064 36.76C17.2107 35.9493 16.2507 35.3093 15.184 34.84C14.16 34.328 13.2 33.88 12.304 33.496C11.4507 33.0693 10.7253 32.6427 10.128 32.216C9.53067 31.7893 9.232 31.2347 9.232 30.552C9.232 29.6987 9.70133 29.016 10.64 28.504C11.5787 27.992 12.816 27.736 14.352 27.736V27.608C14.352 25.0053 14.0747 22.6373 13.52 20.504C13.008 18.3707 12.1973 16.3867 11.088 14.552C9.97867 12.6747 8.528 10.9253 6.736 9.304C4.98667 7.64 2.87467 6.04 0.4 4.504V47H19.6V43.16H4.24V11.672L2.704 10.84C3.984 11.864 5.072 12.9093 5.968 13.976C6.90667 15 7.67467 16.1307 8.272 17.368C8.912 18.5627 9.40267 19.9067 9.744 21.4C10.128 22.8933 10.4053 24.6 10.576 26.52L12.368 24.6ZM17.68 0.919998V21.016C17.68 23.832 18.1067 26.1787 18.96 28.056C19.856 29.8907 20.816 31.512 21.84 32.92C22.9067 34.328 23.8667 35.672 24.72 36.952C25.616 38.1893 26.064 39.64 26.064 41.304C26.064 43.3093 25.3387 45.336 23.888 47.384C22.48 49.4747 20.4107 51.5013 17.68 53.464V59.16H21.52V54.616L20.752 55.96C23.7813 53.8267 26.064 51.5227 27.6 49.048C29.136 46.5733 29.904 43.992 29.904 41.304C29.904 39.8533 29.6907 38.5947 29.264 37.528C28.88 36.4187 28.368 35.3947 27.728 34.456C27.088 33.5173 26.4053 32.6213 25.68 31.768C24.9973 30.872 24.336 29.912 23.696 28.888C23.056 27.864 22.5227 26.7333 22.096 25.496C21.712 24.216 21.52 22.7227 21.52 21.016V0.919998H17.68ZM26.832 24.6L28.624 26.52C28.8373 24.6 29.1147 22.8933 29.456 21.4C29.7973 19.9067 30.2667 18.5627 30.864 17.368C31.504 16.1307 32.272 15 33.168 13.976C34.1067 12.9093 35.216 11.864 36.496 10.84L34.96 11.672V43.16H19.6V47H38.8V4.504C36.3253 6.04 34.192 7.64 32.4 9.304C30.6507 10.9253 29.2213 12.6747 28.112 14.552C27.0027 16.3867 26.1707 18.3707 25.616 20.504C25.104 22.6373 24.848 25.0053 24.848 27.608V27.736C26.384 27.736 27.6213 27.992 28.56 28.504C29.4987 29.016 29.968 29.6987 29.968 30.552C29.968 31.2347 29.6693 31.7893 29.072 32.216C28.4747 32.6427 27.728 33.0693 26.832 33.496C25.9787 33.88 25.0187 34.328 23.952 34.84C22.928 35.3093 21.968 35.9493 21.072 36.76C20.2187 37.5707 19.4933 38.616 18.896 39.896C18.2987 41.1333 18 42.712 18 44.632V45.464L17.68 45.912V48.92H21.52V44.632C21.52 43.1387 21.8187 41.944 22.416 41.048C23.0133 40.1093 23.76 39.32 24.656 38.68C25.5947 38.04 26.5973 37.5067 27.664 37.08C28.7307 36.6107 29.712 36.0987 30.608 35.544C31.5467 34.9467 32.3147 34.264 32.912 33.496C33.5093 32.728 33.808 31.704 33.808 30.424C33.808 28.5893 33.168 27.16 31.888 26.136C30.608 25.112 28.9227 24.6 26.832 24.6Z" fill="#00C2FF"/>
</svg>
